# ASF file generated by Tido's ASF writer for MATLAB.
:version 1.10
:name VICON
:units
  mass 1
  length 0.45000000000000001
  angle deg
:documentation
   .ast/.asf automatically generated from VICON data using
   VICON BodyBuilder and BodyLanguage model FoxedUp or BRILLIANT.MOD
:root
  axis xyz
  order tx ty tz rx ry rz 
  position 0 0 0
  orientation 0 0 0
:bonedata
  begin
    id 1
    name lhipjoint
    direction 0.44017800000000001 -0.82263900000000001 0.359871
    length 1.1390085000000001
    axis 0 0 0 xyz
  end
  begin
    id 2
    name lfemur
    direction 0.34201999999999999 -0.939693 0
    length 3.5465939999999998
    axis 0 0 20 xyz
    dof rx ry rz 
    limits (-160 20)
           (-70 70)
           (-60 70)
  end
  begin
    id 3
    name ltibia
    direction 0.34201999999999999 -0.939693 0
    length 3.7970234999999999
    axis 0 0 20 xyz
    dof rx 
    limits (-10 170)
  end
  begin
    id 4
    name lfoot
    direction 0.088635099999999994 -0.24352299999999999 0.96583699999999995
    length 1.1853629999999999
    axis -90 7.62852e-016 20 xyz
    dof rx rz 
    limits (-45 90)
           (-70 20)
  end
  begin
    id 5
    name ltoes
    direction 1.53703e-011 -4.2171700000000001e-011 1
    length 0.59142150000000004
    axis -90 7.62852e-016 20 xyz
    dof rx 
    limits (-90 20)
  end
  begin
    id 6
    name rhipjoint
    direction -0.399779 -0.83977299999999999 0.367367
    length 1.115766
    axis 0 0 0 xyz
  end
  begin
    id 7
    name rfemur
    direction -0.34201999999999999 -0.939693 0
    length 3.4866269999999999
    axis 0 0 -20 xyz
    dof rx ry rz 
    limits (-160 20)
           (-70 70)
           (-70 60)
  end
  begin
    id 8
    name rtibia
    direction -0.34201999999999999 -0.939693 0
    length 3.9349440000000002
    axis 0 0 -20 xyz
    dof rx 
    limits (-10 170)
  end
  begin
    id 9
    name rfoot
    direction -0.108514 -0.29813899999999999 0.94833400000000001
    length 1.1974590000000001
    axis -90 -7.62852e-016 -20 xyz
    dof rx rz 
    limits (-45 90)
           (-20 70)
  end
  begin
    id 10
    name rtoes
    direction -1.5339199999999999e-011 -4.2207699999999999e-011 1
    length 0.59392350000000005
    axis -90 -7.62852e-016 -20 xyz
    dof rx 
    limits (-90 20)
  end
  begin
    id 11
    name lowerback
    direction 0.011325699999999999 0.99986600000000003 0.0118602
    length 1.164123
    axis 0 0 0 xyz
    dof rx ry rz 
    limits (-20 45)
           (-30 30)
           (-30 30)
  end
  begin
    id 12
    name upperback
    direction -0.016474699999999998 0.99519299999999999 -0.096537499999999998
    length 1.135656
    axis 0 0 0 xyz
    dof rx ry rz 
    limits (-20 45)
           (-30 30)
           (-30 30)
  end
  begin
    id 13
    name thorax
    direction -0.019430099999999999 0.99433000000000005 -0.10455200000000001
    length 1.1524455
    axis 0 0 0 xyz
    dof rx ry rz 
    limits (-20 45)
           (-30 30)
           (-30 30)
  end
  begin
    id 14
    name lowerneck
    direction 0.014854300000000001 0.995587 -0.092657000000000003
    length 0.772119
    axis 0 0 0 xyz
    dof rx ry rz 
    limits (-20 45)
           (-30 30)
           (-30 30)
  end
  begin
    id 15
    name upperneck
    direction -0.0135467 0.99365599999999998 -0.111639
    length 0.76021650000000007
    axis 0 0 0 xyz
    dof rx ry rz 
    limits (-20 45)
           (-30 30)
           (-30 30)
  end
  begin
    id 16
    name head
    direction -0.0061534900000000002 0.99954699999999996 -0.029447999999999998
    length 0.78578999999999999
    axis 0 0 0 xyz
    dof rx ry rz 
    limits (-20 45)
           (-30 30)
           (-30 30)
  end
  begin
    id 17
    name lclavicle
    direction 0.98826700000000001 0.14988499999999999 0.029371299999999999
    length 2.012499
    axis 0 0 0 xyz
    dof ry rz 
    limits (-20 10)
           (0 20)
  end
  begin
    id 18
    name lhumerus
    direction 1 -4.4898600000000001e-011 -1.1483300000000001e-027
    length 2.4171659999999999
    axis 180 -30 -90 xyz
    dof rx ry rz 
    limits (-60 90)
           (-90 90)
           (-90 90)
  end
  begin
    id 19
    name lradius
    direction 0.99999800000000005 0.00170963 -0.00098705499999999992
    length 1.773954
    axis 180 -30 -90 xyz
    dof rx 
    limits (-10 170)
  end
  begin
    id 20
    name lwrist
    direction 0.99999800000000005 7.53149e-005 -0.00194706
    length 0.88697700000000002
    axis 4.6505600000000004e-015 90 90 xyz
    dof ry 
    limits (-180 0)
  end
  begin
    id 21
    name lhand
    direction 1 -4.48973e-011 -1.3174599999999999e-026
    length 0.5306265
    axis 8.4064999999999996e-015 90 90 xyz
    dof rx rz 
    limits (-90 90)
           (-45 45)
  end
  begin
    id 22
    name lfingers
    direction 1 -4.49107e-011 -2.6349199999999999e-026
    length 0.42780555000000003
    axis 1.6812999999999999e-014 90 90 xyz
    dof rx 
    limits (0 90)
  end
  begin
    id 23
    name lthumb
    direction 0.70710700000000004 -6.3504800000000005e-011 0.70710700000000004
    length 0.6142455
    axis -90 45 2.8529899999999998e-015 xyz
    dof rx rz 
    limits (-45 45)
           (-45 45)
  end
  begin
    id 24
    name rclavicle
    direction -0.996699 0.064289499999999999 -0.049572499999999999
    length 2.0817494999999999
    axis 0 0 0 xyz
    dof ry rz 
    limits (-10 20)
           (-20 0)
  end
  begin
    id 25
    name rhumerus
    direction -1 -4.4891899999999998e-011 -2.4105900000000001e-027
    length 2.474145
    axis 180 30 90 xyz
    dof rx ry rz 
    limits (-90 60)
           (-90 90)
           (-90 90)
  end
  begin
    id 26
    name rradius
    direction -0.99999899999999997 0.0011810099999999999 -0.00068185800000000003
    length 1.5677145000000001
    axis 180 30 90 xyz
    dof rx 
    limits (-10 170)
  end
  begin
    id 27
    name rwrist
    direction -0.99999899999999997 0.000321823 -0.00132288
    length 0.78385499999999997
    axis 4.6505600000000004e-015 -90 -90 xyz
    dof ry 
    limits (-180 0)
  end
  begin
    id 28
    name rhand
    direction -1 -4.4902199999999998e-011 -1.3174599999999999e-026
    length 0.60719400000000001
    axis 8.4064999999999996e-015 -90 -90 xyz
    dof rx rz 
    limits (-90 90)
           (-45 45)
  end
  begin
    id 29
    name rfingers
    direction -1 -4.4917800000000002e-011 -2.6349199999999999e-026
    length 0.48953249999999998
    axis 1.6812999999999999e-014 -90 -90 xyz
    dof rx 
    limits (0 90)
  end
  begin
    id 30
    name rthumb
    direction -0.70710700000000004 -6.3471300000000002e-011 0.70710700000000004
    length 0.70287750000000004
    axis -90 -45 -2.8529899999999998e-015 xyz
    dof rx rz 
    limits (-45 45)
           (-45 45)
  end
:hierarchy
begin
  root lhipjoint rhipjoint lowerback 
  lhipjoint lfemur 
  lfemur ltibia 
  ltibia lfoot 
  lfoot ltoes 
  rhipjoint rfemur 
  rfemur rtibia 
  rtibia rfoot 
  rfoot rtoes 
  lowerback upperback 
  upperback thorax 
  thorax lowerneck lclavicle rclavicle 
  lowerneck upperneck 
  upperneck head 
  lclavicle lhumerus 
  lhumerus lradius 
  lradius lwrist 
  lwrist lhand lthumb 
  lhand lfingers 
  rclavicle rhumerus 
  rhumerus rradius 
  rradius rwrist 
  rwrist rhand rthumb 
  rhand rfingers 
end

# AMC file generated by Tido's AMC writer for MATLAB on 27-Nov-2005 at 18:24:20
# Corresponding ASF file: S:\data_MoCap\MoCaDaDB\HDM\Bonn_ASF_AMC_Use IK_on\björn\bjorn.asf
# Number of frames: 542
# Sampling rate: 120
:fully-specified
:degrees
204
root -0.40089734999999999 8.508915 -12.691215 145.649 82.024000000000001 509.82600000000002 
lfemur -5.0979099999999997 10.0161 -17.203299999999999 
ltibia 33.276200000000003 
lfoot -16.258500000000002 -10.388199999999999 
ltoes -13.5275 
rfemur -25.9358 -11.4293 17.807500000000001 
rtibia 65.400499999999994 
rfoot 1.64775 21.407399999999999 
rtoes -5.4894299999999996 
lowerback 1.03406 -1.9483600000000001 -8.3445800000000006 
upperback 11.376799999999999 -1.17293 -3.7845499999999999 
thorax 11.8841 -0.88820200000000005 0.46770400000000001 
lowerneck 0.38719900000000002 -8.2142999999999997 -0.582152 
upperneck 8.2588000000000008 -11.604699999999999 10.861000000000001 
head 3.42686 -5.3825200000000004 3.3601700000000001 
lclavicle 1.5505200000000001e-014 3.8166699999999998e-014 
lhumerus -14.243399999999999 -12.647 77.819699999999997 
lradius 47.826900000000002 
lwrist -6.0156599999999996 
lhand -23.204999999999998 -5.6851700000000003 
lfingers 7.1250200000000001 
lthumb 3.2451300000000001 24.2699 
rclavicle 1.5505200000000001e-014 3.8166699999999998e-014 
rhumerus -48.200000000000003 -47.522500000000001 -56.920200000000001 
rradius 11.616400000000001 
rwrist 41.356099999999998 
rhand -14.1495 11.3446 
rfingers 7.1250200000000001 
rthumb 11.984999999999999 -18.292200000000001 
205
root -0.33244830000000003 8.5098149999999997 -12.70989 145.214 82.136200000000002 509.327 
lfemur -4.4007500000000004 10.286799999999999 -17.142199999999999 
ltibia 32.945700000000002 
lfoot -16.648299999999999 -10.586 
ltoes -13.8194 
rfemur -26.6813 -11.889900000000001 18.119199999999999 
rtibia 63.879899999999999 
rfoot -0.047719600000000001 20.7271 
rtoes -7.6967999999999996 
lowerback 0.98646999999999996 -2.09287 -8.2809500000000007 
upperback 11.3376 -1.3883799999999999 -3.7104200000000001 
thorax 11.8803 -0.99534 0.491286 
lowerneck 0.55897699999999995 -8.1509699999999992 -0.62572899999999998 
upperneck 8.1424900000000004 -11.5055 10.9214 
head 3.3553799999999998 -5.34354 3.4009900000000002 
lclavicle -1.07344e-014 3.9756899999999997e-015 
lhumerus -13.8233 -12.839700000000001 77.495000000000005 
lradius 49.261299999999999 
lwrist -5.5484499999999999 
lhand -23.558800000000002 -5.7927900000000001 
lfingers 7.1250200000000001 
lthumb 2.9034 24.167200000000001 
rclavicle -1.07344e-014 3.9756899999999997e-015 
rhumerus -51.198999999999998 -49.075499999999998 -52.885899999999999 
rradius 11.261900000000001 
rwrist 43.6967 
rhand -14.188800000000001 11.3743 
rfingers 7.1250200000000001 
rthumb 11.947100000000001 -18.264800000000001 
206
root -0.26313120000000001 8.5107150000000011 -12.728475 144.77199999999999 82.245999999999995 508.834 
lfemur -3.6497700000000002 10.574400000000001 -17.069500000000001 
ltibia 32.533099999999997 
lfoot -16.9758 -10.809900000000001 
ltoes -13.955299999999999 
rfemur -27.3202 -12.341699999999999 18.4099 
rtibia 62.191600000000001 
rfoot -1.3904399999999999 19.915500000000002 
rtoes -9.1005199999999995 
lowerback 0.927234 -2.2247699999999999 -8.1717600000000008 
upperback 11.324 -1.5786800000000001 -3.6746300000000001 
thorax 11.908300000000001 -1.08283 0.44907599999999998 
lowerneck 0.65408699999999997 -8.1018000000000008 -0.56062000000000001 
upperneck 8.0673200000000005 -11.431800000000001 10.973599999999999 
head 3.3059500000000002 -5.3091999999999997 3.41513 
lclavicle 3.6576399999999999e-014 1.4312499999999999e-014 
lhumerus -13.432399999999999 -12.9415 77.186599999999999 
lradius 50.725099999999998 
lwrist -5.2282000000000002 
lhand -24.043099999999999 -5.9874900000000002 
lfingers 7.1250200000000001 
lthumb 2.4356900000000001 23.978300000000001 
rclavicle 3.6576399999999999e-014 1.4312499999999999e-014 
rhumerus -53.865600000000001 -50.135199999999998 -49.3538 
rradius 10.9762 
rwrist 45.434399999999997 
rhand -14.060600000000001 11.3188 
rfingers 7.1250200000000001 
rthumb 12.070600000000001 -18.313099999999999 
207
root -0.19354455000000001 8.5129200000000012 -12.74625 144.12100000000001 82.367599999999996 508.11000000000001 
lfemur -2.8678599999999999 10.926500000000001 -16.9999 
ltibia 32.037700000000001 
lfoot -17.279199999999999 -11.0396 
ltoes -14.151 
rfemur -27.913900000000002 -12.687799999999999 18.6875 
rtibia 60.360900000000001 
rfoot -2.3443700000000001 18.998899999999999 
rtoes -9.2645300000000006 
lowerback 0.82413999999999998 -2.3566199999999999 -8.1270699999999998 
upperback 11.309900000000001 -1.76736 -3.5884800000000001 
thorax 11.968299999999999 -1.18066 0.49445499999999998 
lowerneck 0.755166 -8.0447299999999995 -0.651057 
upperneck 7.9807300000000003 -11.348000000000001 11.049300000000001 
head 3.26376 -5.2756299999999996 3.4658500000000001 
lclavicle 3.0215299999999997e-014 4.21423e-014 
lhumerus -12.9764 -13.0939 76.846599999999995 
lradius 52.112499999999997 
lwrist -4.7003000000000004 
lhand -24.6236 -6.1904500000000002 
lfingers 7.1250200000000001 
lthumb 1.8750800000000001 23.781099999999999 
rclavicle 3.0215299999999997e-014 4.21423e-014 
rhumerus -56.1509 -50.791499999999999 -46.245100000000001 
rradius 10.810700000000001 
rwrist 46.805900000000001 
rhand -13.8238 11.233700000000001 
rfingers 7.1250200000000001 
rthumb 12.298999999999999 -18.384599999999999 
208
root -0.12276630000000001 8.5143149999999999 -12.76407 142.83699999999999 82.480900000000005 506.75799999999998 
lfemur -2.0314899999999998 11.247199999999999 -17.010100000000001 
ltibia 31.490600000000001 
lfoot -17.532499999999999 -11.258900000000001 
ltoes -14.101000000000001 
rfemur -28.428599999999999 -13.010899999999999 18.861499999999999 
rtibia 58.423000000000002 
rfoot -3.0493600000000001 18.139600000000002 
rtoes -8.4800400000000007 
lowerback 0.71994999999999998 -2.45641 -8.0801200000000009 
upperback 11.2751 -1.9051499999999999 -3.5826899999999999 
thorax 11.998100000000001 -1.24644 0.45731100000000002 
lowerneck 0.90915500000000005 -8.0005900000000008 -0.60516400000000004 
upperneck 7.9057000000000004 -11.2783 11.111499999999999 
head 3.2060499999999998 -5.2452699999999997 3.4889600000000001 
lclavicle 1.19271e-015 -7.9513899999999992e-015 
lhumerus -12.6189 -13.2919 76.473500000000001 
lradius 53.521599999999999 
lwrist -4.2566699999999997 
lhand -25.278300000000002 -6.4255199999999997 
lfingers 7.1250200000000001 
lthumb 1.24282 23.550599999999999 
rclavicle 1.19271e-015 -7.9513899999999992e-015 
rhumerus -57.552 -50.614600000000003 -44.561900000000001 
rradius 10.8431 
rwrist 46.884900000000002 
rhand -13.5357 11.052 
rfingers 7.1250200000000001 
rthumb 12.5768 -18.549399999999999 
209
root -0.051725700000000006 8.5151699999999995 -12.781124999999999 141.63499999999999 82.576300000000003 505.488 
lfemur -1.18492 11.6647 -16.980499999999999 
ltibia 30.912700000000001 
lfoot -17.808399999999999 -11.5244 
ltoes -14.515499999999999 
rfemur -28.8874 -13.3216 19.041899999999998 
rtibia 56.409799999999997 
rfoot -3.8093300000000001 17.324300000000001 
rtoes -7.6789399999999999 
lowerback 0.58472599999999997 -2.5711400000000002 -8.0593900000000005 
upperback 11.270899999999999 -2.0585499999999999 -3.5383200000000001 
thorax 12.087999999999999 -1.32616 0.471086 
lowerneck 0.976186 -7.9661900000000001 -0.66889600000000005 
upperneck 7.8276399999999997 -11.2278 11.1921 
head 3.17401 -5.2257699999999998 3.5338400000000001 
lclavicle 3.2600700000000001e-014 2.3854199999999999e-014 
lhumerus -12.1295 -13.317299999999999 76.177300000000002 
lradius 54.765500000000003 
lwrist -3.8844099999999999 
lhand -25.949000000000002 -6.76511 
lfingers 7.1250200000000001 
lthumb 0.59504000000000001 23.213799999999999 
rclavicle 3.2600700000000001e-014 2.3854199999999999e-014 
rhumerus -59.123100000000001 -50.737000000000002 -42.526499999999999 
rradius 10.855 
rwrist 47.415500000000002 
rhand -13.258800000000001 10.792199999999999 
rfingers 7.1250200000000001 
rthumb 12.8437 -18.7927 
210
root 0.020084535000000001 8.5139549999999993 -12.797505000000001 140.23400000000001 82.651200000000003 503.995 
lfemur -0.36556100000000002 12.0442 -16.986899999999999 
ltibia 30.340599999999998 
lfoot -18.024699999999999 -11.8277 
ltoes -14.3698 
rfemur -29.317699999999999 -13.630000000000001 19.188500000000001 
rtibia 54.344000000000001 
rfoot -4.5450100000000004 16.6098 
rtoes -6.5708000000000002 
lowerback 0.420769 -2.67754 -8.0442300000000007 
upperback 11.2424 -2.1967500000000002 -3.52847 
thorax 12.164899999999999 -1.39628 0.45131300000000002 
lowerneck 1.07315 -7.9328399999999997 -0.68047299999999999 
upperneck 7.76959 -11.177899999999999 11.2662 
head 3.1392199999999999 -5.2046700000000001 3.5681799999999999 
lclavicle 1.8288199999999999e-014 3.33958e-014 
lhumerus -11.609299999999999 -13.412800000000001 75.773899999999998 
lradius 55.913800000000002 
lwrist -3.4612799999999999 
lhand -26.5916 -7.1830299999999996 
lfingers 7.1250200000000001 
lthumb -0.025680100000000001 22.796700000000001 
rclavicle 1.8288199999999999e-014 3.33958e-014 
rhumerus -60.285899999999998 -50.4968 -41.134700000000002 
rradius 10.928599999999999 
rwrist 47.337299999999999 
rhand -12.9877 10.5555 
rfingers 7.1250200000000001 
rthumb 13.105 -19.012699999999999 
211
root 0.091705499999999995 8.5108050000000013 -12.812760000000001 138.691 82.677499999999995 502.36799999999999 
lfemur 0.45902900000000002 12.536 -16.985099999999999 
ltibia 29.7743 
lfoot -18.229700000000001 -12.2262 
ltoes -14.533099999999999 
rfemur -29.6938 -13.9316 19.296399999999998 
rtibia 52.2622 
rfoot -5.3364700000000003 15.9778 
rtoes -5.9710700000000001 
lowerback 0.275839 -2.7842799999999999 -8.0964899999999993 
upperback 11.2127 -2.33413 -3.5046300000000001 
thorax 12.234999999999999 -1.47316 0.48383999999999999 
lowerneck 1.12626 -7.9032600000000004 -0.71003099999999997 
upperneck 7.7218099999999996 -11.1342 11.304399999999999 
head 3.1148199999999999 -5.18682 3.59104 
lclavicle -3.7769099999999998e-014 -2.22639e-014 
lhumerus -11.125 -13.3637 75.456100000000006 
lradius 57.007199999999997 
lwrist -3.19645 
lhand -27.1294 -7.6092599999999999 
lfingers 7.1250200000000001 
lthumb -0.54508100000000004 22.369800000000001 
rclavicle -3.7769099999999998e-014 -2.22639e-014 
rhumerus -60.939 -49.960900000000002 -40.408499999999997 
rradius 11.046799999999999 
rwrist 46.718699999999998 
rhand -12.7317 10.3348 
rfingers 7.1250200000000001 
rthumb 13.351800000000001 -19.217400000000001 
212
root 0.16332345000000001 8.5053599999999996 -12.827520000000002 137.19200000000001 82.722099999999998 500.77499999999998 
lfemur 1.2641 12.9824 -16.972899999999999 
ltibia 29.204499999999999 
lfoot -18.461300000000001 -12.5656 
ltoes -14.6044 
rfemur -30.0594 -14.226699999999999 19.4314 
rtibia 50.191899999999997 
rfoot -6.1629500000000004 15.4368 
rtoes -5.9559499999999996 
lowerback 0.095797099999999996 -2.8814600000000001 -8.1117299999999997 
upperback 11.2042 -2.4548899999999998 -3.4765299999999999 
thorax 12.348100000000001 -1.53928 0.49912699999999999 
lowerneck 1.08439 -7.8949499999999997 -0.80601999999999996 
upperneck 7.7276199999999999 -11.130800000000001 11.3759 
head 3.1368100000000001 -5.1848799999999997 3.6320199999999998 
lclavicle 1.8685799999999999e-014 7.1562499999999995e-015 
lhumerus -10.493 -13.2767 75.150000000000006 
lradius 57.935099999999998 
lwrist -3.0047700000000002 
lhand -27.699300000000001 -8.0377600000000005 
lfingers 7.1250200000000001 
lthumb -1.0954600000000001 21.9392 
rclavicle 1.8685799999999999e-014 7.1562499999999995e-015 
rhumerus -61.9024 -49.783999999999999 -39.168100000000003 
rradius 11.076599999999999 
rwrist 46.578299999999999 
rhand -12.591200000000001 10.255000000000001 
rfingers 7.1250200000000001 
rthumb 13.487299999999999 -19.2882 
